<svg width="600" height="450" viewBox="0 0 600 450" fill="none" xmlns="http://www.w3.org/2000/svg">
  <rect width="600" height="450" fill="#191726"/>
  <rect x="50" y="50" width="120" height="350" rx="4" fill="#2D2945"/>
  <rect x="70" y="70" width="80" height="30" rx="4" fill="#FF8800"/>
  <rect x="70" y="120" width="80" height="20" rx="4" fill="white" fill-opacity="0.2"/>
  <rect x="70" y="150" width="80" height="20" rx="4" fill="white" fill-opacity="0.1"/>
  <rect x="70" y="180" width="80" height="20" rx="4" fill="white" fill-opacity="0.1"/>
  <rect x="190" y="50" width="360" height="60" rx="4" fill="#2D2945"/>
  <rect x="210" y="70" width="100" height="20" rx="4" fill="white" fill-opacity="0.2"/>
  <rect x="190" y="130" width="360" height="270" rx="4" fill="#2D2945"/>
  <rect x="210" y="150" width="150" height="100" rx="4" fill="#FF8800" fill-opacity="0.1"/>
  <rect x="380" y="150" width="150" height="100" rx="4" fill="#FF8800" fill-opacity="0.1"/>
  <rect x="210" y="270" width="320" height="30" rx="4" fill="white" fill-opacity="0.05"/>
  <rect x="210" y="320" width="320" height="30" rx="4" fill="white" fill-opacity="0.05"/>
  <text x="300" y="415" font-family="Arial" font-size="20" fill="white" text-anchor="middle">Admin Dashboard</text>
</svg>
